<?xml version="1.0" encoding="utf-8"?>
<svg version="1.1" xmlns:xlink="http://www.w3.org/1999/xlink" width="30px" height="32px" xmlns="http://www.w3.org/2000/svg">
  <defs>
    <filter x="386px" y="361px" width="30px" height="32px" filterUnits="userSpaceOnUse" id="filter4">
      <feOffset dx="1" dy="1" in="SourceAlpha" result="shadowOffsetInner" />
      <feGaussianBlur stdDeviation="2.5" in="shadowOffsetInner" result="shadowGaussian" />
      <feComposite in2="shadowGaussian" operator="atop" in="SourceAlpha" result="shadowComposite" />
      <feColorMatrix type="matrix" values="0 0 0 0 0  0 0 0 0 0  0 0 0 0 0  0 0 0 0.698039215686274 0  " in="shadowComposite" />
    </filter>
    <g id="widget5">
      <path d="M 400 365  C 405.6 365  410 369.84  410 376  C 410 382.16  405.6 387  400 387  C 394.4 387  390 382.16  390 376  C 390 369.84  394.4 365  400 365  Z " fill-rule="nonzero" fill="#009dd9" stroke="none" />
      <path d="M 400 365.5  C 405.32 365.5  409.5 370.12  409.5 376  C 409.5 381.88  405.32 386.5  400 386.5  C 394.68 386.5  390.5 381.88  390.5 376  C 390.5 370.12  394.68 365.5  400 365.5  Z " stroke-width="1" stroke="#ffffff" fill="none" />
    </g>
  </defs>
  <g transform="matrix(1 0 0 1 -386 -361 )">
    <use xlink:href="#widget5" filter="url(#filter4)" />
    <use xlink:href="#widget5" />
  </g>
</svg>